<svg width="512" height="512" viewBox="0 0 512 512" fill="none" xmlns="http://www.w3.org/2000/svg">
  <defs>
    <linearGradient id="g1" x1="40" y1="70" x2="430" y2="420" gradientUnits="userSpaceOnUse">
      <stop stop-color="#2E7D32"/>
      <stop offset="1" stop-color="#66BB6A"/>
    </linearGradient>
    <linearGradient id="g2" x1="130" y1="360" x2="390" y2="400" gradientUnits="userSpaceOnUse">
      <stop stop-color="#0284C7"/>
      <stop offset="1" stop-color="#FACC15"/>
    </linearGradient>
  </defs>
  <rect width="512" height="512" rx="24" fill="#FFFFFF"/>
  <circle cx="256" cy="230" r="180" stroke="url(#g1)" stroke-width="10"/>
  <path d="M110 320C160 280 220 280 256 320C292 280 352 280 402 320" stroke="#2E7D32" stroke-width="18" stroke-linecap="round"/>
  <path d="M105 355C165 320 345 320 407 355" stroke="url(#g2)" stroke-width="14" stroke-linecap="round"/>
  <path d="M255 280V165" stroke="#2E7D32" stroke-width="10" stroke-linecap="round"/>
  <ellipse cx="225" cy="205" rx="26" ry="44" transform="rotate(-24 225 205)" fill="#66BB6A"/>
  <ellipse cx="287" cy="205" rx="26" ry="44" transform="rotate(24 287 205)" fill="#2E7D32"/>
  <rect x="137" y="146" width="58" height="102" rx="12" fill="#2E7D32"/>
  <rect x="146" y="157" width="40" height="78" rx="6" fill="#F8FAFC"/>
  <circle cx="355" cy="155" r="28" fill="#FACC15"/>
  <text x="256" y="440" text-anchor="middle" font-size="46" font-family="Poppins, Arial, sans-serif" font-weight="700" fill="#166534">SMART UBUHINZI</text>
  <text x="256" y="478" text-anchor="middle" font-size="28" font-family="Poppins, Arial, sans-serif" font-weight="700" fill="#4D9F34">RWANDA</text>
</svg>
